<svg width="360" height="360" viewBox="0 0 360 360" fill="none" xmlns="http://www.w3.org/2000/svg">
<g clip-path="url(#clip0)">
<path d="M185.46 98.848C185.46 98.848 181.42 102.98 177.404 104.748C173.388 106.52 172.104 106.116 168.7 105.364" stroke="#F2F0DF" stroke-width="0.5" stroke-miterlimit="10"/>
<g filter="url(#filter0_dd)">
<path d="M239.224 193.464C238 191.556 235.208 189.924 233.912 189.176C232.62 188.428 237.792 178.488 237.248 177.6C236.704 176.712 235.752 179.028 229.76 178.62C223.768 178.212 221.932 177.124 221.656 178.416C221.384 179.708 219.476 185.768 219.884 184.272C220.292 182.776 221.108 176.648 221.244 173.788C221.38 170.928 221.592 167.768 221.992 166.504C222.392 165.236 224.512 163.168 224.172 153.704C224.172 153.704 223.832 154.928 220.02 155.064C216.208 155.2 214.776 158.128 211.916 160.988C209.056 163.848 204.088 169.296 197.072 174.332C190.056 179.368 188.968 180.664 185.976 180.324C182.984 179.984 177.176 172.084 175.756 169.908C174.336 167.728 165.824 156.496 163.712 147.848C161.6 139.2 161.736 144.58 160.852 141.516C159.968 138.452 160.444 128.172 164.256 124.7C168.068 121.228 173.652 123.952 177.396 128.444C181.14 132.936 182.504 137.84 181.208 140.904C179.916 143.968 180.188 135.796 180.46 137.772C180.732 139.748 180.596 143.628 182.024 145.668C183.452 147.708 186.516 155.676 187.132 159.216C187.748 162.756 188.904 164.46 188.56 164.936C188.22 165.412 186.924 165.82 186.244 167.388C185.564 168.952 183.792 167.388 192.576 163.032C201.36 158.676 201.632 156.632 206.532 152.684C211.436 148.736 210.48 147.848 211.98 145.944C213.48 144.04 215.316 142.268 217.02 140.836C218.724 139.408 222.468 137.432 223.352 137.024C224.236 136.616 224.508 140.428 223.964 140.428C223.42 140.428 220.9 140.7 219.336 141.312C217.772 141.924 207.488 141.312 201.632 147.78C195.776 154.248 192.168 162.624 192.372 161.056C192.576 159.492 193.8 149.14 194.008 145.124C194.212 141.108 192.032 137.228 190.128 135.524C188.7 134.248 185.592 131.764 182.484 129.868C180.664 128.756 178.904 127.548 177.248 126.204C176.488 125.588 175.612 124.968 174.74 124.56C174.74 124.56 171.744 122.62 168.136 122.552C164.528 122.484 161.328 125.716 160.58 128.988C159.832 132.256 161.364 126.232 162.112 124.084C162.86 121.94 163.032 120.132 165.432 118.452C168.316 116.432 169.652 114.948 167.916 113.112C166.18 111.272 162.184 109.208 161.4 108.852C158.012 107.308 167.808 110.92 169.444 109.744C171.08 108.568 171.204 104.868 169.828 105.788C168.448 106.708 164.568 107.064 163.344 105.736C162.12 104.408 161.252 106.196 161.916 107.472C162.58 108.748 165.236 108.8 167.024 108.032C168.812 107.268 167.688 107.42 168.708 106.448C169.728 105.476 168.656 105.068 165.848 104.864C163.04 104.66 167.38 94.684 169.848 93.988C189.132 88.54 160.868 111.236 167.432 90.568C169.008 85.604 170.752 85.716 171.568 88.064C172.384 90.412 168.096 91.384 169.424 90.72C170.752 90.056 170.992 87.9 171.72 87.044C172.708 85.888 171.412 84.592 171.976 84.644C172.536 84.696 171.312 84.952 169.372 83.928C167.432 82.904 167.008 83.316 167.008 83.316C164.916 84.288 166.056 89.444 166.516 90.516C166.976 91.588 166.516 88.832 166.464 87.452C166.412 86.072 167.436 84.336 168.2 83.828C168.964 83.32 167.944 82.908 164.524 81.836C161.38 80.852 158.884 80.512 157.068 81.324" stroke="#F2F0DF" stroke-miterlimit="10"/>
</g>
<g filter="url(#filter1_dd)">
<path d="M168.6 267.204C167.6 270.88 168.276 279.212 168.3 281.788C168.328 284.364 168.836 289.308 169.024 290.124C169.212 290.936 169.108 294 169.532 295.208C169.956 296.416 171.276 300.908 171.86 301.94C172.444 302.972 176.624 306.792 177.72 307.924C178.816 309.056 179.036 309.936 179.144 310.608C179.248 311.256 179.184 313.456 177.208 314.164C177.208 314.164 175.94 314.576 174.156 314.64C164.856 314.964 155.036 315.32 152.176 315.232C152.176 315.232 130.684 314.52 130.928 315.232C131.172 315.944 129.348 329.108 131.98 329.408C134.612 329.704 144.972 329.528 144.94 330.092C144.904 330.656 145.08 332.848 144.904 334.212C144.728 335.576 149.364 338.156 148.416 338.008C147.468 337.86 138.3 338.156 136.02 337.832C133.736 337.504 136.896 336.944 138.444 335.876C139.988 334.808 139.428 330.392 138.724 329.916C138.02 329.44 141.672 329.648 144.484 329.68C147.292 329.708 167.836 330.244 172.404 330.008C176.972 329.772 184.24 329.98 184.24 330.512C184.24 331.044 183.328 335.492 185.152 336.472C186.98 337.452 188.068 338.192 187.364 338.4C186.66 338.608 178.864 338.636 176.76 338.636C174.656 338.636 175.496 337.924 177.92 335.612C180.344 333.3 176.34 329.92 178.552 330.008C180.764 330.096 192.564 331.164 193.248 329.564C193.932 327.964 194.904 314.716 193.008 314.268C192.16 314.068 185.036 314.28 176.916 314.556C175.484 314.604 173.872 314.376 173.872 314.376C172.256 314.2 170.796 313.788 170.592 313.66C170.252 313.44 170.74 312.924 171.516 312.824C172.292 312.724 173.968 313.804 175.7 313.576C177.428 313.352 178 311.732 177.412 311.212C176.824 310.692 175.708 310.82 175.36 311.076C175.012 311.332 174.808 312.424 175.796 312.252C176.784 312.08 176.776 311.644 177.008 311.288C177.24 310.932 176.036 310.504 174.876 310.3C173.716 310.096 176.364 310.836 177.588 310.888C178.808 310.94 178.496 310.06 178.196 309.992C177.896 309.924 177.704 310.008 177.492 310.256C177.28 310.504 177.624 310.988 177.984 310.88C178.34 310.776 178.608 310.504 178.404 310.052C178.2 309.6 175.424 308.296 175.656 308.472C175.888 308.644 178.188 309.948 178.484 309.368C178.78 308.788 178.048 308.3 177.752 308.636C177.456 308.972 177.652 309.456 178.08 309.428C178.508 309.396 178.712 308.704 178.072 308.436C177.428 308.164 177.564 307.848 177.084 307.352C176.604 306.856 175.292 305.116 172.964 303.352C172.384 302.912 172.012 302.508 171.756 302.1C171.688 301.988 171.624 301.872 171.572 301.76C171.036 300.628 171.184 299.368 170.128 297.12C168.576 293.824 169.004 291.632 169.112 291.044C169.22 290.456 169.648 290.66 166.412 292.356C163.176 294.052 158.572 290.504 158.388 290.096C158.204 289.688 157.988 292.332 157.692 292.716C157.396 293.1 155.604 293.664 153.624 293.508C151.644 293.348 148.888 293.304 150.012 293.984C151.136 294.66 152.712 294.752 152.66 294.12C152.608 293.488 152.072 293.532 151.108 293.376C150.144 293.216 147.04 290.98 146.16 289.424C145.276 287.864 147.284 287.548 147.764 287.164C148.244 286.78 144.044 288.112 142.548 291.592C141.048 295.072 143.432 298.256 143.432 298.256C141.88 295.792 141.96 294.168 142.388 292.608C142.816 291.048 144.984 289.716 144.368 289.648C143.752 289.58 141.932 290.46 141.292 292.244C140.648 294.028 140.06 302.86 140.304 303.764C140.544 304.668 142.98 305.796 142.98 305.164C142.98 304.532 142.9 299.18 143.008 298.636C143.116 298.092 144.4 299.428 146.352 302.272C148.304 305.12 148.948 309.16 150.044 310.628C151.14 312.096 154.592 315.396 160.96 314.876C167.328 314.356 166.684 311.644 167.004 311.848C167.324 312.052 170.12 313.464 170.576 313.508C171.032 313.552 171.392 312.256 173.156 310.2C174.92 308.144 177.224 307.352 176.848 307.016C176.472 306.676 174.148 304.104 173.852 304.304C173.556 304.504 172.648 305.116 170.856 306.36C169.064 307.604 167.644 309.792 167.324 310.244C167.152 310.484 166.096 309.952 165.316 308.708C164.644 307.628 164.268 305.968 163.784 304.448C162.74 301.172 159.356 299.824 158.52 298.816C158.232 298.468 157.876 298.884 160.552 300.6C163.228 302.316 164.956 307.188 165.036 308.18C165.116 309.172 165.312 308.708 165.312 308.708C167.48 311.148 166.572 311.396 166.812 312.164C167.052 312.932 165.7 313.656 163.78 314.404C160.476 315.692 155.188 314.236 154.92 314.12C154.652 314.008 156.58 312.672 156.7 312.956C156.816 313.24 157.396 313.452 158.28 313.18C159.164 312.908 157.8 311.964 158.172 312.096C158.544 312.228 158.44 312.456 158.468 312.864C158.496 313.272 159.112 313.744 160.128 313.024C161.144 312.3 159.888 311.308 160.26 311.444C160.636 311.58 160.876 312.8 160.716 312.98C160.556 313.16 161.172 313.408 162.132 312.888C163.096 312.368 162.132 311.396 161.784 310.788C161.436 310.18 161.568 310.336 162.32 311.264C163.068 312.192 165.744 312.508 166.44 311.556C167.136 310.604 165.904 309.276 165.288 309.344C164.672 309.412 163.548 310.272 164.564 310.632C165.58 310.992 166.328 310.452 166.436 310.18C166.544 309.908 165.448 309.164 164.752 308.552C164.056 307.944 161.588 305.452 161.248 305.388C160.908 305.324 155.388 308.204 153.82 309.228C152.252 310.252 150.468 311.696 151.464 312.06C152.464 312.42 154.816 314.712 155.388 313.628C155.96 312.544 164.164 308.868 164.304 308.448C164.448 308.028 163.092 307.004 161.452 305.316C159.812 303.628 158.528 299.532 157.956 297.364C157.384 295.196 157.028 293.088 158.172 288.812C159.316 284.536 163.452 276.404 166.232 270.924C169.016 265.444 172.012 264.3 176.076 260.744C178.28 258.82 178.868 256.56 178.984 254.592C179.148 251.72 179.512 248.864 180.212 246.076C181.444 241.156 183.892 226.556 184.612 226.584C185.652 226.628 184.608 226.584 184.612 226.584C184.968 226.528 186.18 226.684 187.08 226.696C187.632 226.704 189.852 226.708 191.472 226.552C192.496 226.452 192.708 226.048 192.716 226.364C192.836 233.324 196.928 241.68 198.656 244.004C200.428 246.388 201.38 250.812 200.632 255.716C199.884 260.62 202.06 273.352 201.38 275.732C200.7 278.116 200.224 281.52 198.86 285.604C197.496 289.688 197.088 294.796 197.364 297.248C197.636 299.7 200.088 299.7 203.968 299.836C207.848 299.972 210.504 302.22 214.044 301.948C217.584 301.676 218.468 302.22 216.972 304.06C215.476 305.9 207.236 303.448 204.308 301.948C201.38 300.452 197.068 301.96 196.344 302.152C184.704 305.224 178.1 303.932 175.512 299.984C172.924 296.036 175.24 294.672 182.184 293.312C187.812 292.208 193.08 289.624 194.876 288.684C195.232 288.496 195.544 288.24 195.836 287.96C196.076 287.732 196.532 287.512 197.844 287.38C199.888 287.176 197.708 289.22 200.976 292.216C204.244 295.212 213.504 296.164 215.412 294.396C217.32 292.624 216.364 289.632 217.184 286.976C218.004 284.32 215.344 284.388 215.14 281.46C214.936 278.532 216.548 279.616 216.296 273.768C215.004 243.616 214.8 244.844 216.704 268.456C216.936 271.312 219.02 285.068 218.476 288.744C217.932 292.42 215.48 296.164 215.616 298.14C215.724 299.732 217.424 300.128 217.548 303.244C217.58 303.996 217.516 304.912 217.316 306.036C216.296 311.824 214.184 309.916 218.064 308.964C221.944 308.012 221.332 314.072 228.48 312.572C235.628 311.076 234.268 312.368 234.268 312.368C227.324 320.472 223.512 313.116 221.468 313.66C219.424 314.204 217.248 311.956 216.156 310.664C215.068 309.372 215.34 315.908 209.62 320.876C203.9 325.844 201.792 329.116 200.224 333.812C198.66 338.508 209.824 340.144 217.312 336.944C224.324 333.948 229.22 325.584 229.816 324.528C229.836 324.496 229.884 324.508 229.888 324.544L230.008 326.036C230.008 326.036 234.54 324.62 235.764 320.672C236.144 319.452 236.092 318.12 235.88 316.768C235.88 316.768 235.7 314.888 235.54 315.056C235.54 315.056 230.964 319.82 227.184 324.108C223.488 328.304 215.788 338.848 202.556 333.864C201.776 333.572 200.872 333.744 200.316 334.36C199.976 334.736 200.076 335.356 200.34 335.74C201.34 337.184 206.072 340.26 215.508 337.596C224.944 334.932 229.8 323.324 229.98 324.48C230.16 325.636 229.072 326.752 232.8 324.576C236.84 322.216 235.9 316.884 235.9 316.884C235.9 316.884 235.58 315.2 235.492 314.832C235.276 313.904 235.044 312.996 234.884 312.132C234.632 310.8 234.544 309.584 234.952 308.616C236.176 305.688 235.972 303.168 235.768 303.78C235.564 304.392 235.292 300.308 236.312 295.2C237.332 290.092 237.128 277.496 237.264 271.44C237.4 265.38 234.812 258.776 234.404 255.712C233.996 252.648 232.84 250.128 232.02 247.952C231.204 245.772 232.156 244.48 232.496 242.504C232.836 240.528 230.724 240.12 230.792 238.012C230.86 235.904 231.404 230.184 232.084 227.732C232.764 225.28 232.628 222.42 232.356 220.584C232.084 218.748 232.9 219.292 233.852 216.772C234.804 214.252 232.832 213.708 234.124 211.8C235.416 209.892 233.716 209.824 234.94 208.396C236.164 206.968 234.328 206.148 235.62 205.06C236.912 203.972 237.664 203.152 237.256 201.724C236.848 200.296 236.78 200.704 238.208 198.66C239.636 196.616 239.16 194.032 239.228 193.484C239.296 192.94 240.656 196.072 240.656 194.844C240.656 193.62 240.452 183.472 240.452 179.94C240.452 176.408 240.316 171.692 239.84 169.788C239.364 167.88 225.064 167.132 223.296 166.384C222.816 166.18 222.6 166.008 222.548 165.804C222.404 165.256 223.42 164.484 223.568 162.3C223.772 159.304 224.792 152.36 225.272 148.956C225.748 145.552 224.116 138.812 223.776 136.224C223.436 133.636 222.756 122.472 219.284 115.048C215.812 107.624 219.012 102.928 220.92 100C222.828 97.072 222.416 99.864 217.652 108.376C212.888 116.888 212.748 99.864 222.556 88.088C232.36 76.308 247.544 92.172 243.664 87.476C239.784 82.78 230.524 84.616 228.616 83.052C226.708 81.488 222.896 77.536 219.9 76.516C216.904 75.496 218.812 72.228 220.036 68.004C221.26 63.78 214.792 87.136 214.112 86.524C213.432 85.912 207.916 86.796 205.736 86.728C203.556 86.66 209.344 75.288 211.184 72.156C213.024 69.024 215.608 63.644 216.428 61.944C217.244 60.24 212.752 62.624 210.776 63.508C208.8 64.392 215.064 60.104 216.496 60.104C217.928 60.104 219.356 61.124 220.716 63.372C222.076 65.62 220.58 65.688 220.376 66.912C220.172 68.136 226.164 71.676 232.156 74.06C238.148 76.444 240.736 81.208 245.228 86.452C249.72 91.696 250.064 101.704 249.244 104.632C248.428 107.56 248.088 119.476 247.2 125.604C246.312 131.732 244.272 142.76 245.292 146.3C246.312 149.84 245.904 160.872 244.476 165.228C243.048 169.584 239.028 175.304 238.008 177.484C236.988 179.664 232.492 189.808 229.972 195.188C228.804 197.684 228.132 199.86 227.796 201.624L227.608 202.744C227.58 203.9 227.956 205.264 226.16 206.252C223.176 207.892 220.712 207.172 219.452 205.808C218.192 204.448 215.248 202.712 215.748 201.664C216.248 200.616 216.184 199.068 216.452 198.56C216.72 198.052 217.208 199.508 218.26 200.36C219.312 201.212 220.44 201.008 222.412 200.872C224.384 200.736 226.464 201.248 226.7 202.916C226.94 204.584 226.12 206.864 223.568 207.136C221.016 207.408 218.496 205.876 219.416 203.256C220.336 200.636 222.84 200.804 223.848 200.896C224.84 200.988 226.332 201.304 227.252 201.784C227.728 202.032 227.588 203.02 227.588 203.02C227.452 204.344 227.532 205.34 227.724 205.944C228.2 207.44 227.808 213.068 227.332 215.724C226.856 218.38 226.692 221.392 225.18 222.3C223.644 223.22 223.504 220.992 223.164 219.492C222.824 217.996 223.64 224.12 221.872 224.328C220.1 224.532 219.352 222.488 219.284 220.924C219.216 219.36 219.896 225.896 216.832 225.76C213.768 225.624 215.232 221.164 214.96 220.212C214.688 219.26 215.3 222.56 214.108 224.264C213.72 224.816 212.132 225.488 211.112 224.196C210.092 222.904 211.248 215.412 211.384 213.304C211.52 211.192 211.724 216.3 210.568 218.684C209.412 221.068 205.904 220.828 207.264 218.924C208.624 217.016 207.844 215.348 208.388 214.328C208.932 213.308 209.272 213.036 209.748 210.584C210.224 208.132 212.472 205.82 214.444 203.776C216.42 201.732 216.216 198.872 216.828 196.628C217.44 194.384 219.144 187.3 219.552 186.076C219.96 184.852 219.144 186.416 212.336 187.436C205.528 188.456 202.192 191.86 197.972 194.04C194.656 195.752 192.372 195.356 190.496 194.996C190.496 194.996 189.7 194.928 189.088 194.16C188.476 193.396 190.264 187.064 189.904 182.924C189.544 178.784 189.088 180.42 189.188 183.588C189.292 186.752 187.684 193.084 189.532 194.88C189.996 195.332 190.176 196.028 190.212 196.132C190.416 196.744 191.368 200.712 191.3 208.404C191.276 211.124 195.696 220.64 192.508 226.152C191.38 228.104 162.328 224.312 146.976 225.436C139.348 225.996 139.512 222.444 140.416 219.972C141.304 217.544 142.164 215.096 142.88 212.612C144.276 207.772 145.64 203.748 146.348 200.304C147.384 195.288 148.988 190.4 151.26 185.808C153.128 182.036 155.516 178.232 158.888 174.56C165.016 167.888 164.54 163.872 165.832 167.48C167.124 171.088 180.812 170.612 174.276 171.972C167.74 173.332 163.384 169.928 164.676 165.98C165.968 162.032 161.204 153.588 159.228 145.008C157.252 136.428 159.228 128.804 159.228 128.804C160.316 124.108 163.584 120.156 166.104 117.844C166.104 117.844 167.876 116.484 168.556 115.256C169.236 114.032 167.32 112.784 165.892 111.42C164.464 110.06 161 112.328 160.048 110.692C159.096 109.056 161.544 106.744 160.592 105.652C159.64 104.564 162.636 103.268 161.204 100.544C159.772 97.82 161.544 95.64 158.208 92.988C154.872 90.332 154.668 88.564 156.164 84.816C157.66 81.072 156.504 78.348 152.148 79.436C147.792 80.524 140.708 86.856 141.664 95.504C142.616 104.152 145.34 105.376 144.66 107.896C144.328 109.12 144.192 110.316 144.388 111.256C144.596 112.248 145.176 112.964 146.296 113.136C148.476 113.476 145.172 111.52 144.536 111.136C143.896 110.752 143.232 111.62 143.924 112.132C144.612 112.644 145.736 114.2 146.936 113.436C148.136 112.672 146.732 111.852 145.736 111.264C144.74 110.676 143.488 110.268 143.184 112.82C142.876 115.372 140.512 117.764 140.648 126.548C140.784 135.332 137.72 135.808 139.764 141.392C141.808 146.976 145.62 148.676 143.984 151.536C142.348 154.396 139.148 160.388 142.624 167.604C146.096 174.82 144.668 176.728 143.644 181.356C142.624 185.984 144.188 189.048 146.164 191.704C148.14 194.36 144.6 185.372 147.252 180.332C149.908 175.292 150.452 171.684 148.748 167.124C147.044 162.564 149.496 158.68 148.748 155.888C148 153.096 147.044 160.448 149.496 163.852C151.948 167.256 151.812 174.676 150.312 177.4C148.816 180.124 147.724 185.16 149.088 187.272C150.448 189.384 148.476 185.432 151.54 180.396C154.604 175.356 155.828 166.576 153.516 161.604C151.2 156.632 152.836 152.208 154.808 147.512C156.784 142.816 152.968 135.46 150.724 131.172C148.476 126.884 151.064 123.412 148.612 119.8C146.16 116.188 146.228 113.264 148.952 112.448C151.676 111.632 153.512 120.756 164.408 118.44C175.304 116.124 167.744 124.568 178.772 122.32C178.772 122.32 179.248 121.98 183.608 125.18C187.968 128.38 188.1 129.4 187.284 128.72C186.468 128.04 185.444 126.2 185.376 123.956C185.308 121.708 183.196 119.6 182.448 119.12C181.7 118.644 186.056 122.184 187.076 124.16C188.096 126.136 192.388 129.404 193.136 131.784C193.884 134.168 194.088 136.14 193.068 138.048C192.224 139.628 196.108 135.38 194.908 130.712C194.748 130.096 195.988 125.656 196.184 123.204C196.44 119.988 196.236 116.208 197.664 108.856C199.092 101.504 200.728 96.548 202.36 92.364C203.996 88.176 201.8 90.576 203.076 88.124C204.352 85.672 201.8 90.576 199.604 87.868C197.408 85.16 197.92 87.308 197.612 91.748C197.304 96.188 195.52 100.94 194.7 103.696C193.884 106.452 193.016 113.756 193.116 116.82C193.22 119.884 193.116 128.26 193.064 128.668C193.012 129.076 192.012 127.648 192.012 127.648C187.812 122.248 183.436 117.928 182.372 116.464C181.284 114.968 181.896 114.216 182.032 112.584C182.168 110.948 180.74 106.252 182.1 103.052C183.46 99.852 187.752 98.012 187.14 95.016C186.528 92.02 184.128 93.484 182.8 91.92C181.472 90.356 180.776 90.916 180.092 91.58C179.408 92.244 179.156 92.824 180.076 92.38C180.996 91.936 181.2 92.14 181.948 91.752C182.696 91.36 182.9 90.952 182.612 90.204C182.324 89.456 182.528 89.572 180.956 90.968C180.056 91.768 182.712 89.296 181.448 89.276C179.764 89.252 179.552 91.14 179.584 91.904C179.62 92.668 180.384 89.656 179.072 89.148C177.76 88.636 177.564 89.66 177.148 88.928C176.964 88.608 178.988 87.088 178.868 87.584C178.748 88.08 178.736 88.94 176.852 89.636C175.192 90.248 174.768 89.184 173.676 86.94C172.588 84.692 172.076 82.652 171.652 81.544C171.228 80.436 168.76 80.32 169.78 79.808C170.8 79.296 174.8 77.92 175.764 78.632C176.728 79.348 175.4 78.94 173.868 79.5C172.336 80.06 170.956 81.032 171.928 80.724C172.9 80.416 175.504 80.112 176.524 80.416C177.544 80.724 177.852 80.52 176.372 81.232C174.892 81.948 174.328 81.896 174.892 81.948C175.452 82 176.712 82.112 177.112 81.436C177.512 80.76 176.424 82.612 175.196 82.66C173.972 82.712 174.824 80.872 172.848 80.82C170.872 80.768 170.704 80.872 169.172 79.8C167.64 78.728 166.056 76.94 165.292 75.308C164.528 73.672 164.272 72.04 163.352 71.784C162.432 71.528 156.048 72.6 155.744 65.3C155.44 58 161.768 50.492 166.52 45.436C171.268 40.38 178.624 36.704 186.944 40.688C195.264 44.672 200.12 55.496 203.232 58.204C206.344 60.912 209.768 64.384 213.7 65.456C217.632 66.528 209.424 64.58 206.652 61.676C203.88 58.776 206.756 66.016 201.956 67.344C197.156 68.672 192.868 63.564 188.424 66.068C183.98 68.572 185.972 71.84 187.148 71.224C188.324 70.608 188.372 70.304 188.068 69.64C187.76 68.976 191.08 69.488 190.364 70.968C189.648 72.448 190.568 72.604 192 73.216C193.428 73.828 193.48 77.148 191.236 76.076C188.988 75.004 189.704 74.34 190.828 75.564C191.952 76.788 194.248 75.716 193.076 72.244C191.904 68.772 188.836 66.984 187 68.004C185.16 69.024 183.936 71.732 185.364 73.724C186.792 75.716 188.736 79.952 190.88 78.728C193.024 77.504 195.424 76.38 196.652 78.168C197.876 79.956 199.052 82.968 200.432 82.916C201.812 82.864 201.656 86.492 202.936 87.204C204.212 87.92 201.352 84.548 199.668 84.908C197.984 85.268 198.032 84.448 197.268 86.236C196.504 88.024 195.592 92.692 191.804 93.996C187.216 95.58 183.928 92.484 183.288 92.332C183.14 92.296 181.236 91.288 184.296 90.42C187.36 89.552 187.872 84.956 187.004 82.66C186.136 80.364 184.5 74.696 181.644 74.184C178.788 73.672 174.392 74.744 172.964 73.776C171.536 72.804 169.184 66.628 167.5 68.824C166.388 70.272 165.788 71.04 164.336 71.632" stroke="#F2F0DF" stroke-miterlimit="10"/>
</g>
<g filter="url(#filter2_dd)">
<path d="M155.784 263.084C156.792 261.772 157.696 252.62 157.592 249.864C157.42 245.184 153.812 229.428 151.668 225.508C151.528 225.252 152.296 225.168 152.588 225.168C154.732 225.172 161.056 225.2 162.584 225.4C164.436 225.644 163.896 242.076 162.904 249.608C162.636 251.644 162.516 253.188 161.66 255.116C160.488 257.76 154.828 263.724 152.716 268.324C152.716 268.324 151.668 270.24 150.188 277.372C148.84 283.864 149.568 285.752 147.756 287.14C147.756 287.14 148.86 287.344 149.624 281.012C150.32 275.252 152.064 268.016 155.048 264.224C155.336 263.864 155.58 263.348 155.784 263.084Z" stroke="#F2F0DF" stroke-miterlimit="10"/>
</g>
</g>
<defs>
<filter id="filter0_dd" x="141.864" y="65.3696" width="112.781" height="143.364" filterUnits="userSpaceOnUse" color-interpolation-filters="sRGB">
<feFlood flood-opacity="0" result="BackgroundImageFix"/>
<feColorMatrix in="SourceAlpha" type="matrix" values="0 0 0 0 0 0 0 0 0 0 0 0 0 0 0 0 0 0 127 0"/>
<feOffset/>
<feGaussianBlur stdDeviation="7.5"/>
<feColorMatrix type="matrix" values="0 0 0 0 0.913725 0 0 0 0 0.909804 0 0 0 0 0.831373 0 0 0 0.7 0"/>
<feBlend mode="normal" in2="BackgroundImageFix" result="effect1_dropShadow"/>
<feColorMatrix in="SourceAlpha" type="matrix" values="0 0 0 0 0 0 0 0 0 0 0 0 0 0 0 0 0 0 127 0"/>
<feOffset/>
<feGaussianBlur stdDeviation="2"/>
<feColorMatrix type="matrix" values="0 0 0 0 0.94902 0 0 0 0 0.941176 0 0 0 0 0.87451 0 0 0 0.3 0"/>
<feBlend mode="normal" in2="effect1_dropShadow" result="effect2_dropShadow"/>
<feBlend mode="normal" in="SourceGraphic" in2="effect2_dropShadow" result="shape"/>
</filter>
<filter id="filter1_dd" x="115.038" y="23.4991" width="150.057" height="330.645" filterUnits="userSpaceOnUse" color-interpolation-filters="sRGB">
<feFlood flood-opacity="0" result="BackgroundImageFix"/>
<feColorMatrix in="SourceAlpha" type="matrix" values="0 0 0 0 0 0 0 0 0 0 0 0 0 0 0 0 0 0 127 0"/>
<feOffset/>
<feGaussianBlur stdDeviation="7.5"/>
<feColorMatrix type="matrix" values="0 0 0 0 0.913725 0 0 0 0 0.909804 0 0 0 0 0.831373 0 0 0 0.7 0"/>
<feBlend mode="normal" in2="BackgroundImageFix" result="effect1_dropShadow"/>
<feColorMatrix in="SourceAlpha" type="matrix" values="0 0 0 0 0 0 0 0 0 0 0 0 0 0 0 0 0 0 127 0"/>
<feOffset/>
<feGaussianBlur stdDeviation="2"/>
<feColorMatrix type="matrix" values="0 0 0 0 0.94902 0 0 0 0 0.941176 0 0 0 0 0.87451 0 0 0 0.3 0"/>
<feBlend mode="normal" in2="effect1_dropShadow" result="effect2_dropShadow"/>
<feBlend mode="normal" in="SourceGraphic" in2="effect2_dropShadow" result="shape"/>
</filter>
<filter id="filter2_dd" x="131.559" y="209.668" width="47.7533" height="92.9727" filterUnits="userSpaceOnUse" color-interpolation-filters="sRGB">
<feFlood flood-opacity="0" result="BackgroundImageFix"/>
<feColorMatrix in="SourceAlpha" type="matrix" values="0 0 0 0 0 0 0 0 0 0 0 0 0 0 0 0 0 0 127 0"/>
<feOffset/>
<feGaussianBlur stdDeviation="7.5"/>
<feColorMatrix type="matrix" values="0 0 0 0 0.913725 0 0 0 0 0.909804 0 0 0 0 0.831373 0 0 0 0.7 0"/>
<feBlend mode="normal" in2="BackgroundImageFix" result="effect1_dropShadow"/>
<feColorMatrix in="SourceAlpha" type="matrix" values="0 0 0 0 0 0 0 0 0 0 0 0 0 0 0 0 0 0 127 0"/>
<feOffset/>
<feGaussianBlur stdDeviation="2"/>
<feColorMatrix type="matrix" values="0 0 0 0 0.94902 0 0 0 0 0.941176 0 0 0 0 0.87451 0 0 0 0.3 0"/>
<feBlend mode="normal" in2="effect1_dropShadow" result="effect2_dropShadow"/>
<feBlend mode="normal" in="SourceGraphic" in2="effect2_dropShadow" result="shape"/>
</filter>
<clipPath id="clip0">
<rect width="440" height="360" fill="white" transform="translate(-40)"/>
</clipPath>
</defs>
</svg>
